# xmcd
#
# Track frame offsets:
#	150
#	25635
#	44215
#	62755
#	74450
#	89338
#	105388
#	121302
#	136728
#	152940
#	175675
#	191908
#	215150
#	232213
#	261313
#	291908
#	311408
#	333700
#
# Disc length: 4731 seconds
#
# Revision: 2
# Processed by: cddbd v1.5.2PL0 Copyright (c) Steve Scherf et al.
# Submitted via: EasyCDDAExtractor 2010.6.0.0
#
DISCID=1a127912
DTITLE=Various Artist - Corné Klijn's Disco Classics Party - Shake Your Groov
DTITLE=e Thing
DYEAR=2001
DGENRE=Disco
TTITLE0=Indeep - Last Night A DJ Saved My Life
TTITLE1=The Brothers Johnson - Stomp!
TTITLE2=Marvin Gaye - Got To Give It Up
TTITLE3=The Three Degrees - Year Of Decision
TTITLE4=Shakatak - Down On The Street
TTITLE5=Tavares - Whodunit
TTITLE6=Carol Jiani - Hit 'n Run Lover
TTITLE7=Peaches and Herb - Shake Your Groove Thing
TTITLE8=Jaki Graham - Set Me Free
TTITLE9=Sun - Sun Is Here
TTITLE10=Sister Sledge - Got To Love Somebody
TTITLE11=Dynasty - Strokin'
TTITLE12=Paul Parker - Right On Target
TTITLE13=The Whispers - I Can Make It Better
TTITLE14=Colonel Abrams - I'm Not Gonna Let You
TTITLE15=D-Train - Keep On
TTITLE16=BB and Q Band - Starlette
TTITLE17=Kleeer - Never Cry Again
EXTD=
EXTT0=
EXTT1=
EXTT2=
EXTT3=
EXTT4=
EXTT5=
EXTT6=
EXTT7=
EXTT8=
EXTT9=
EXTT10=
EXTT11=
EXTT12=
EXTT13=
EXTT14=
EXTT15=
EXTT16=
EXTT17=
PLAYORDER=
